# xmcd CD database file
#
# Track frame offsets:
#	150
#	42735
#	76995
#	139971
#	175442
#	219297
#	240476
#	269168
#
# Disc length: 3848 seconds
#
# Revision: 1
# Processed by: cddbd v1.5.2PL0 Copyright (c) Steve Scherf et al.
# Submitted via: CDex 1.50
#
DISCID=780f0608
DTITLE=Anders BRODSGAARD - Dreamfragments_Den Danske Trio, Johannes Soe Hansen
DYEAR=1900
DGENRE=Jazz
TTITLE0=Dreamfragment (1989)
TTITLE1=Joker (1990)
TTITLE2=Klaviertrio  (1996)
TTITLE3=Requiem  (1992)
TTITLE4=Traumfunken (1990)
TTITLE5=Hymne 1 (1994)
TTITLE6=Praeludium (1994)
TTITLE7=Hymne 2 (1994)
EXTD=
EXTT0=
EXTT1=
EXTT2=
EXTT3=
EXTT4=
EXTT5=
EXTT6=
EXTT7=
PLAYORDER=
